<?xml version="1.0" encoding="utf-8"?>
<svg xmlns="http://www.w3.org/2000/svg" xmlns:xlink="http://www.w3.org/1999/xlink" width="600" height="400" viewBox="0 0 2400 1600">
<defs>
  <clipPath id="clip730">
    <rect x="0" y="0" width="2400" height="1600"/>
  </clipPath>
</defs>
<path clip-path="url(#clip730)" d="
M0 1600 L2400 1600 L2400 0 L0 0  Z
  " fill="#ffffff" fill-rule="evenodd" fill-opacity="1"/>
<defs>
  <clipPath id="clip731">
    <rect x="480" y="0" width="1681" height="1600"/>
  </clipPath>
</defs>
<path clip-path="url(#clip730)" d="
M303.376 1486.45 L2222.31 1486.45 L2222.31 47.2441 L303.376 47.2441  Z
  " fill="#ffffff" fill-rule="evenodd" fill-opacity="1"/>
<defs>
  <clipPath id="clip732">
    <rect x="303" y="47" width="1920" height="1440"/>
  </clipPath>
</defs>
<polyline clip-path="url(#clip732)" style="stroke:#000000; stroke-linecap:butt; stroke-linejoin:round; stroke-width:0.8; stroke-opacity:0.4; fill:none" points="
  303.376,1486.45 303.376,47.2441 
  "/>
<polyline clip-path="url(#clip732)" style="stroke:#000000; stroke-linecap:butt; stroke-linejoin:round; stroke-width:0.8; stroke-opacity:0.4; fill:none" points="
  783.111,1486.45 783.111,47.2441 
  "/>
<polyline clip-path="url(#clip732)" style="stroke:#000000; stroke-linecap:butt; stroke-linejoin:round; stroke-width:0.8; stroke-opacity:0.4; fill:none" points="
  1262.85,1486.45 1262.85,47.2441 
  "/>
<polyline clip-path="url(#clip732)" style="stroke:#000000; stroke-linecap:butt; stroke-linejoin:round; stroke-width:0.8; stroke-opacity:0.4; fill:none" points="
  1742.58,1486.45 1742.58,47.2441 
  "/>
<polyline clip-path="url(#clip732)" style="stroke:#000000; stroke-linecap:butt; stroke-linejoin:round; stroke-width:0.8; stroke-opacity:0.4; fill:none" points="
  2222.31,1486.45 2222.31,47.2441 
  "/>
<polyline clip-path="url(#clip732)" style="stroke:#000000; stroke-linecap:butt; stroke-linejoin:round; stroke-width:2; stroke-opacity:0.06; fill:none" points="
  399.323,1486.45 399.323,47.2441 
  "/>
<polyline clip-path="url(#clip732)" style="stroke:#000000; stroke-linecap:butt; stroke-linejoin:round; stroke-width:2; stroke-opacity:0.06; fill:none" points="
  495.27,1486.45 495.27,47.2441 
  "/>
<polyline clip-path="url(#clip732)" style="stroke:#000000; stroke-linecap:butt; stroke-linejoin:round; stroke-width:2; stroke-opacity:0.06; fill:none" points="
  591.217,1486.45 591.217,47.2441 
  "/>
<polyline clip-path="url(#clip732)" style="stroke:#000000; stroke-linecap:butt; stroke-linejoin:round; stroke-width:2; stroke-opacity:0.06; fill:none" points="
  687.164,1486.45 687.164,47.2441 
  "/>
<polyline clip-path="url(#clip732)" style="stroke:#000000; stroke-linecap:butt; stroke-linejoin:round; stroke-width:2; stroke-opacity:0.06; fill:none" points="
  879.058,1486.45 879.058,47.2441 
  "/>
<polyline clip-path="url(#clip732)" style="stroke:#000000; stroke-linecap:butt; stroke-linejoin:round; stroke-width:2; stroke-opacity:0.06; fill:none" points="
  975.005,1486.45 975.005,47.2441 
  "/>
<polyline clip-path="url(#clip732)" style="stroke:#000000; stroke-linecap:butt; stroke-linejoin:round; stroke-width:2; stroke-opacity:0.06; fill:none" points="
  1070.95,1486.45 1070.95,47.2441 
  "/>
<polyline clip-path="url(#clip732)" style="stroke:#000000; stroke-linecap:butt; stroke-linejoin:round; stroke-width:2; stroke-opacity:0.06; fill:none" points="
  1166.9,1486.45 1166.9,47.2441 
  "/>
<polyline clip-path="url(#clip732)" style="stroke:#000000; stroke-linecap:butt; stroke-linejoin:round; stroke-width:2; stroke-opacity:0.06; fill:none" points="
  1358.79,1486.45 1358.79,47.2441 
  "/>
<polyline clip-path="url(#clip732)" style="stroke:#000000; stroke-linecap:butt; stroke-linejoin:round; stroke-width:2; stroke-opacity:0.06; fill:none" points="
  1454.74,1486.45 1454.74,47.2441 
  "/>
<polyline clip-path="url(#clip732)" style="stroke:#000000; stroke-linecap:butt; stroke-linejoin:round; stroke-width:2; stroke-opacity:0.06; fill:none" points="
  1550.69,1486.45 1550.69,47.2441 
  "/>
<polyline clip-path="url(#clip732)" style="stroke:#000000; stroke-linecap:butt; stroke-linejoin:round; stroke-width:2; stroke-opacity:0.06; fill:none" points="
  1646.63,1486.45 1646.63,47.2441 
  "/>
<polyline clip-path="url(#clip732)" style="stroke:#000000; stroke-linecap:butt; stroke-linejoin:round; stroke-width:2; stroke-opacity:0.06; fill:none" points="
  1838.53,1486.45 1838.53,47.2441 
  "/>
<polyline clip-path="url(#clip732)" style="stroke:#000000; stroke-linecap:butt; stroke-linejoin:round; stroke-width:2; stroke-opacity:0.06; fill:none" points="
  1934.47,1486.45 1934.47,47.2441 
  "/>
<polyline clip-path="url(#clip732)" style="stroke:#000000; stroke-linecap:butt; stroke-linejoin:round; stroke-width:2; stroke-opacity:0.06; fill:none" points="
  2030.42,1486.45 2030.42,47.2441 
  "/>
<polyline clip-path="url(#clip732)" style="stroke:#000000; stroke-linecap:butt; stroke-linejoin:round; stroke-width:2; stroke-opacity:0.06; fill:none" points="
  2126.37,1486.45 2126.37,47.2441 
  "/>
<polyline clip-path="url(#clip730)" style="stroke:#000000; stroke-linecap:butt; stroke-linejoin:round; stroke-width:4; stroke-opacity:1; fill:none" points="
  303.376,1486.45 2222.31,1486.45 
  "/>
<polyline clip-path="url(#clip730)" style="stroke:#000000; stroke-linecap:butt; stroke-linejoin:round; stroke-width:4; stroke-opacity:1; fill:none" points="
  303.376,47.2441 2222.31,47.2441 
  "/>
<polyline clip-path="url(#clip730)" style="stroke:#000000; stroke-linecap:butt; stroke-linejoin:round; stroke-width:4; stroke-opacity:1; fill:none" points="
  303.376,1486.45 303.376,1469.18 
  "/>
<polyline clip-path="url(#clip730)" style="stroke:#000000; stroke-linecap:butt; stroke-linejoin:round; stroke-width:4; stroke-opacity:1; fill:none" points="
  783.111,1486.45 783.111,1469.18 
  "/>
<polyline clip-path="url(#clip730)" style="stroke:#000000; stroke-linecap:butt; stroke-linejoin:round; stroke-width:4; stroke-opacity:1; fill:none" points="
  1262.85,1486.45 1262.85,1469.18 
  "/>
<polyline clip-path="url(#clip730)" style="stroke:#000000; stroke-linecap:butt; stroke-linejoin:round; stroke-width:4; stroke-opacity:1; fill:none" points="
  1742.58,1486.45 1742.58,1469.18 
  "/>
<polyline clip-path="url(#clip730)" style="stroke:#000000; stroke-linecap:butt; stroke-linejoin:round; stroke-width:4; stroke-opacity:1; fill:none" points="
  2222.31,1486.45 2222.31,1469.18 
  "/>
<polyline clip-path="url(#clip730)" style="stroke:#000000; stroke-linecap:butt; stroke-linejoin:round; stroke-width:4; stroke-opacity:1; fill:none" points="
  399.323,1486.45 399.323,1477.81 
  "/>
<polyline clip-path="url(#clip730)" style="stroke:#000000; stroke-linecap:butt; stroke-linejoin:round; stroke-width:4; stroke-opacity:1; fill:none" points="
  495.27,1486.45 495.27,1477.81 
  "/>
<polyline clip-path="url(#clip730)" style="stroke:#000000; stroke-linecap:butt; stroke-linejoin:round; stroke-width:4; stroke-opacity:1; fill:none" points="
  591.217,1486.45 591.217,1477.81 
  "/>
<polyline clip-path="url(#clip730)" style="stroke:#000000; stroke-linecap:butt; stroke-linejoin:round; stroke-width:4; stroke-opacity:1; fill:none" points="
  687.164,1486.45 687.164,1477.81 
  "/>
<polyline clip-path="url(#clip730)" style="stroke:#000000; stroke-linecap:butt; stroke-linejoin:round; stroke-width:4; stroke-opacity:1; fill:none" points="
  879.058,1486.45 879.058,1477.81 
  "/>
<polyline clip-path="url(#clip730)" style="stroke:#000000; stroke-linecap:butt; stroke-linejoin:round; stroke-width:4; stroke-opacity:1; fill:none" points="
  975.005,1486.45 975.005,1477.81 
  "/>
<polyline clip-path="url(#clip730)" style="stroke:#000000; stroke-linecap:butt; stroke-linejoin:round; stroke-width:4; stroke-opacity:1; fill:none" points="
  1070.95,1486.45 1070.95,1477.81 
  "/>
<polyline clip-path="url(#clip730)" style="stroke:#000000; stroke-linecap:butt; stroke-linejoin:round; stroke-width:4; stroke-opacity:1; fill:none" points="
  1166.9,1486.45 1166.9,1477.81 
  "/>
<polyline clip-path="url(#clip730)" style="stroke:#000000; stroke-linecap:butt; stroke-linejoin:round; stroke-width:4; stroke-opacity:1; fill:none" points="
  1358.79,1486.45 1358.79,1477.81 
  "/>
<polyline clip-path="url(#clip730)" style="stroke:#000000; stroke-linecap:butt; stroke-linejoin:round; stroke-width:4; stroke-opacity:1; fill:none" points="
  1454.74,1486.45 1454.74,1477.81 
  "/>
<polyline clip-path="url(#clip730)" style="stroke:#000000; stroke-linecap:butt; stroke-linejoin:round; stroke-width:4; stroke-opacity:1; fill:none" points="
  1550.69,1486.45 1550.69,1477.81 
  "/>
<polyline clip-path="url(#clip730)" style="stroke:#000000; stroke-linecap:butt; stroke-linejoin:round; stroke-width:4; stroke-opacity:1; fill:none" points="
  1646.63,1486.45 1646.63,1477.81 
  "/>
<polyline clip-path="url(#clip730)" style="stroke:#000000; stroke-linecap:butt; stroke-linejoin:round; stroke-width:4; stroke-opacity:1; fill:none" points="
  1838.53,1486.45 1838.53,1477.81 
  "/>
<polyline clip-path="url(#clip730)" style="stroke:#000000; stroke-linecap:butt; stroke-linejoin:round; stroke-width:4; stroke-opacity:1; fill:none" points="
  1934.47,1486.45 1934.47,1477.81 
  "/>
<polyline clip-path="url(#clip730)" style="stroke:#000000; stroke-linecap:butt; stroke-linejoin:round; stroke-width:4; stroke-opacity:1; fill:none" points="
  2030.42,1486.45 2030.42,1477.81 
  "/>
<polyline clip-path="url(#clip730)" style="stroke:#000000; stroke-linecap:butt; stroke-linejoin:round; stroke-width:4; stroke-opacity:1; fill:none" points="
  2126.37,1486.45 2126.37,1477.81 
  "/>
<path clip-path="url(#clip730)" d="M260.405 1530.94 Q260.405 1523.5 262.282 1519.45 Q264.901 1513.42 271.077 1513.42 Q272.386 1513.42 273.745 1513.8 Q275.128 1514.14 276.857 1515.5 Q278.611 1516.86 279.673 1519.08 Q281.699 1523.38 281.699 1530.94 Q281.699 1538.33 279.822 1542.35 Q277.08 1548.23 271.027 1548.23 Q268.755 1548.23 266.432 1547.07 Q264.135 1545.91 262.678 1543.12 Q260.405 1538.94 260.405 1530.94 M264.604 1530.32 Q264.604 1537.95 265.148 1540.99 Q265.765 1544.28 267.445 1545.71 Q269.15 1547.12 271.027 1547.12 Q273.053 1547.12 274.733 1545.61 Q276.437 1544.08 276.956 1540.8 Q277.524 1537.56 277.5 1530.32 Q277.5 1523.28 277.005 1520.46 Q276.338 1517.18 274.56 1515.87 Q272.806 1514.54 271.027 1514.54 Q270.36 1514.54 269.644 1514.73 Q268.952 1514.93 267.939 1515.5 Q266.927 1516.07 266.136 1517.48 Q265.37 1518.88 265 1521.01 Q264.604 1523.75 264.604 1530.32 Z" fill="#000000" fill-rule="evenodd" fill-opacity="1" /><path clip-path="url(#clip730)" d="M288.789 1546.3 Q288.023 1545.49 288.023 1544.43 Q288.023 1543.36 288.789 1542.6 Q289.555 1541.81 290.716 1541.81 Q291.828 1541.81 292.569 1542.55 Q293.334 1543.27 293.334 1544.45 Q293.334 1545.61 292.519 1546.38 Q291.729 1547.12 290.716 1547.12 Q289.555 1547.12 288.789 1546.3 Z" fill="#000000" fill-rule="evenodd" fill-opacity="1" /><path clip-path="url(#clip730)" d="M300.622 1523.33 L302.277 1512.93 L303.537 1512.93 Q303.685 1513.55 303.932 1513.82 Q304.204 1514.09 305.637 1514.31 Q307.094 1514.54 310.034 1514.54 L322.311 1514.54 Q322.311 1515.7 321.867 1516.31 L315.024 1525.92 Q312.85 1528.96 311.887 1534.57 Q311.318 1538.33 311.343 1542.87 L311.343 1545.44 Q311.343 1548.23 308.996 1548.23 Q306.674 1548.23 306.674 1545.44 Q306.674 1535.78 312.899 1526.42 Q313.566 1525.46 316.012 1522.02 Q318.482 1518.59 318.581 1518.44 L308.107 1518.44 Q303.512 1518.44 303.142 1518.74 Q302.648 1519.18 301.882 1523.33 L300.622 1523.33 Z" fill="#000000" fill-rule="evenodd" fill-opacity="1" /><path clip-path="url(#clip730)" d="M325.054 1530.94 Q325.054 1523.5 326.931 1519.45 Q329.55 1513.42 335.725 1513.42 Q337.035 1513.42 338.393 1513.8 Q339.777 1514.14 341.506 1515.5 Q343.26 1516.86 344.322 1519.08 Q346.348 1523.38 346.348 1530.94 Q346.348 1538.33 344.47 1542.35 Q341.728 1548.23 335.676 1548.23 Q333.403 1548.23 331.081 1547.07 Q328.784 1545.91 327.326 1543.12 Q325.054 1538.94 325.054 1530.94 M329.253 1530.32 Q329.253 1537.95 329.797 1540.99 Q330.414 1544.28 332.094 1545.71 Q333.799 1547.12 335.676 1547.12 Q337.702 1547.12 339.381 1545.61 Q341.086 1544.08 341.605 1540.8 Q342.173 1537.56 342.148 1530.32 Q342.148 1523.28 341.654 1520.46 Q340.987 1517.18 339.209 1515.87 Q337.455 1514.54 335.676 1514.54 Q335.009 1514.54 334.293 1514.73 Q333.601 1514.93 332.588 1515.5 Q331.575 1516.07 330.785 1517.48 Q330.019 1518.88 329.648 1521.01 Q329.253 1523.75 329.253 1530.32 Z" fill="#000000" fill-rule="evenodd" fill-opacity="1" /><path clip-path="url(#clip730)" d="M740.411 1530.94 Q740.411 1523.5 742.289 1519.45 Q744.907 1513.42 751.083 1513.42 Q752.392 1513.42 753.751 1513.8 Q755.134 1514.14 756.864 1515.5 Q758.618 1516.86 759.68 1519.08 Q761.705 1523.38 761.705 1530.94 Q761.705 1538.33 759.828 1542.35 Q757.086 1548.23 751.034 1548.23 Q748.761 1548.23 746.439 1547.07 Q744.141 1545.91 742.684 1543.12 Q740.411 1538.94 740.411 1530.94 M744.611 1530.32 Q744.611 1537.95 745.154 1540.99 Q745.772 1544.28 747.452 1545.71 Q749.156 1547.12 751.034 1547.12 Q753.059 1547.12 754.739 1545.61 Q756.444 1544.08 756.962 1540.8 Q757.531 1537.56 757.506 1530.32 Q757.506 1523.28 757.012 1520.46 Q756.345 1517.18 754.566 1515.87 Q752.812 1514.54 751.034 1514.54 Q750.367 1514.54 749.65 1514.73 Q748.959 1514.93 747.946 1515.5 Q746.933 1516.07 746.142 1517.48 Q745.377 1518.88 745.006 1521.01 Q744.611 1523.75 744.611 1530.32 Z" fill="#000000" fill-rule="evenodd" fill-opacity="1" /><path clip-path="url(#clip730)" d="M768.795 1546.3 Q768.03 1545.49 768.03 1544.43 Q768.03 1543.36 768.795 1542.6 Q769.561 1541.81 770.722 1541.81 Q771.834 1541.81 772.575 1542.55 Q773.341 1543.27 773.341 1544.45 Q773.341 1545.61 772.526 1546.38 Q771.735 1547.12 770.722 1547.12 Q769.561 1547.12 768.795 1546.3 Z" fill="#000000" fill-rule="evenodd" fill-opacity="1" /><path clip-path="url(#clip730)" d="M780.628 1523.33 L782.283 1512.93 L783.543 1512.93 Q783.691 1513.55 783.938 1513.82 Q784.21 1514.09 785.643 1514.31 Q787.101 1514.54 790.04 1514.54 L802.318 1514.54 Q802.318 1515.7 801.873 1516.31 L795.03 1525.92 Q792.856 1528.96 791.893 1534.57 Q791.325 1538.33 791.349 1542.87 L791.349 1545.44 Q791.349 1548.23 789.003 1548.23 Q786.681 1548.23 786.681 1545.44 Q786.681 1535.78 792.906 1526.42 Q793.573 1525.46 796.018 1522.02 Q798.489 1518.59 798.588 1518.44 L788.113 1518.44 Q783.519 1518.44 783.148 1518.74 Q782.654 1519.18 781.888 1523.33 L780.628 1523.33 Z" fill="#000000" fill-rule="evenodd" fill-opacity="1" /><path clip-path="url(#clip730)" d="M805.603 1538.97 Q805.603 1537.46 806.419 1536.89 Q807.234 1536.3 808.098 1536.3 Q809.259 1536.3 809.926 1537.04 Q810.618 1537.76 810.618 1538.77 Q810.618 1539.78 809.926 1540.52 Q809.259 1541.24 808.098 1541.24 Q807.53 1541.24 807.234 1541.14 Q807.901 1543.46 809.926 1545.14 Q811.977 1546.82 814.669 1546.82 Q818.054 1546.82 820.079 1543.54 Q821.29 1541.41 821.29 1536.6 Q821.29 1532.35 820.376 1530.22 Q818.968 1526.99 816.078 1526.99 Q811.977 1526.99 809.556 1530.52 Q809.259 1530.96 808.914 1530.99 Q808.42 1530.99 808.296 1530.72 Q808.197 1530.42 808.197 1529.65 L808.197 1514.68 Q808.197 1513.47 808.691 1513.47 Q808.889 1513.47 809.309 1513.62 Q812.496 1515.03 816.028 1515.05 Q819.66 1515.05 822.92 1513.57 Q823.167 1513.42 823.316 1513.42 Q823.81 1513.42 823.834 1513.99 Q823.834 1514.19 823.414 1514.78 Q823.019 1515.35 822.155 1516.12 Q821.29 1516.86 820.178 1517.57 Q819.067 1518.29 817.436 1518.79 Q815.831 1519.25 814.052 1519.25 Q811.927 1519.25 809.753 1518.59 L809.753 1528.44 Q812.372 1525.87 816.176 1525.87 Q820.228 1525.87 823.019 1529.14 Q825.811 1532.4 825.811 1536.94 Q825.811 1541.71 822.5 1544.97 Q819.215 1548.23 814.768 1548.23 Q810.717 1548.23 808.148 1545.34 Q805.603 1542.45 805.603 1538.97 Z" fill="#000000" fill-rule="evenodd" fill-opacity="1" /><path clip-path="url(#clip730)" d="M1219.87 1530.94 Q1219.87 1523.5 1221.75 1519.45 Q1224.37 1513.42 1230.55 1513.42 Q1231.86 1513.42 1233.21 1513.8 Q1234.6 1514.14 1236.33 1515.5 Q1238.08 1516.86 1239.14 1519.08 Q1241.17 1523.38 1241.17 1530.94 Q1241.17 1538.33 1239.29 1542.35 Q1236.55 1548.23 1230.5 1548.23 Q1228.22 1548.23 1225.9 1547.07 Q1223.6 1545.91 1222.15 1543.12 Q1219.87 1538.94 1219.87 1530.94 M1224.07 1530.32 Q1224.07 1537.95 1224.62 1540.99 Q1225.23 1544.28 1226.91 1545.71 Q1228.62 1547.12 1230.5 1547.12 Q1232.52 1547.12 1234.2 1545.61 Q1235.91 1544.08 1236.43 1540.8 Q1236.99 1537.56 1236.97 1530.32 Q1236.97 1523.28 1236.47 1520.46 Q1235.81 1517.18 1234.03 1515.87 Q1232.28 1514.54 1230.5 1514.54 Q1229.83 1514.54 1229.11 1514.73 Q1228.42 1514.93 1227.41 1515.5 Q1226.4 1516.07 1225.61 1517.48 Q1224.84 1518.88 1224.47 1521.01 Q1224.07 1523.75 1224.07 1530.32 Z" fill="#000000" fill-rule="evenodd" fill-opacity="1" /><path clip-path="url(#clip730)" d="M1248.26 1546.3 Q1247.49 1545.49 1247.49 1544.43 Q1247.49 1543.36 1248.26 1542.6 Q1249.02 1541.81 1250.19 1541.81 Q1251.3 1541.81 1252.04 1542.55 Q1252.8 1543.27 1252.8 1544.45 Q1252.8 1545.61 1251.99 1546.38 Q1251.2 1547.12 1250.19 1547.12 Q1249.02 1547.12 1248.26 1546.3 Z" fill="#000000" fill-rule="evenodd" fill-opacity="1" /><path clip-path="url(#clip730)" d="M1259.37 1539.49 Q1259.37 1533.83 1266.66 1530.17 Q1263.52 1528.05 1262.96 1527.43 Q1260.73 1524.96 1260.73 1521.87 Q1260.73 1518.34 1263.4 1515.89 Q1266.09 1513.42 1269.9 1513.42 Q1273.53 1513.42 1276.27 1515.52 Q1279.01 1517.62 1279.01 1520.96 Q1279.01 1525.65 1272.89 1528.81 Q1276.94 1531.33 1277.9 1532.4 Q1280.37 1535.14 1280.37 1538.62 Q1280.37 1542.67 1277.26 1545.46 Q1274.15 1548.23 1269.85 1548.23 Q1265.65 1548.23 1262.51 1545.79 Q1259.37 1543.34 1259.37 1539.49 M1261.89 1539.49 Q1261.89 1542.62 1264.24 1544.72 Q1266.61 1546.82 1269.9 1546.82 Q1273.09 1546.82 1275.46 1545 Q1277.85 1543.17 1277.85 1540.45 Q1277.85 1539.39 1277.48 1538.47 Q1277.14 1537.56 1276.42 1536.84 Q1275.73 1536.1 1275.28 1535.78 Q1274.86 1535.44 1274.05 1534.87 L1267.82 1530.94 Q1261.89 1534.22 1261.89 1539.49 M1262.96 1519.9 Q1262.96 1522.32 1265.5 1524 L1271.78 1528.05 Q1276.79 1525.11 1276.79 1520.96 Q1276.79 1518.27 1274.74 1516.49 Q1272.69 1514.68 1269.85 1514.68 Q1267.06 1514.68 1265.01 1516.17 Q1262.96 1517.62 1262.96 1519.9 Z" fill="#000000" fill-rule="evenodd" fill-opacity="1" /><path clip-path="url(#clip730)" d="M1284.52 1530.94 Q1284.52 1523.5 1286.4 1519.45 Q1289.02 1513.42 1295.19 1513.42 Q1296.5 1513.42 1297.86 1513.8 Q1299.25 1514.14 1300.98 1515.5 Q1302.73 1516.86 1303.79 1519.08 Q1305.82 1523.38 1305.82 1530.94 Q1305.82 1538.33 1303.94 1542.35 Q1301.2 1548.23 1295.15 1548.23 Q1292.87 1548.23 1290.55 1547.07 Q1288.25 1545.91 1286.8 1543.12 Q1284.52 1538.94 1284.52 1530.94 M1288.72 1530.32 Q1288.72 1537.95 1289.27 1540.99 Q1289.88 1544.28 1291.56 1545.71 Q1293.27 1547.12 1295.15 1547.12 Q1297.17 1547.12 1298.85 1545.61 Q1300.56 1544.08 1301.07 1540.8 Q1301.64 1537.56 1301.62 1530.32 Q1301.62 1523.28 1301.12 1520.46 Q1300.46 1517.18 1298.68 1515.87 Q1296.92 1514.54 1295.15 1514.54 Q1294.48 1514.54 1293.76 1514.73 Q1293.07 1514.93 1292.06 1515.5 Q1291.04 1516.07 1290.25 1517.48 Q1289.49 1518.88 1289.12 1521.01 Q1288.72 1523.75 1288.72 1530.32 Z" fill="#000000" fill-rule="evenodd" fill-opacity="1" /><path clip-path="url(#clip730)" d="M1699.88 1530.94 Q1699.88 1523.5 1701.76 1519.45 Q1704.38 1513.42 1710.55 1513.42 Q1711.86 1513.42 1713.22 1513.8 Q1714.6 1514.14 1716.33 1515.5 Q1718.09 1516.86 1719.15 1519.08 Q1721.17 1523.38 1721.17 1530.94 Q1721.17 1538.33 1719.3 1542.35 Q1716.56 1548.23 1710.5 1548.23 Q1708.23 1548.23 1705.91 1547.07 Q1703.61 1545.91 1702.15 1543.12 Q1699.88 1538.94 1699.88 1530.94 M1704.08 1530.32 Q1704.08 1537.95 1704.62 1540.99 Q1705.24 1544.28 1706.92 1545.71 Q1708.63 1547.12 1710.5 1547.12 Q1712.53 1547.12 1714.21 1545.61 Q1715.91 1544.08 1716.43 1540.8 Q1717 1537.56 1716.98 1530.32 Q1716.98 1523.28 1716.48 1520.46 Q1715.81 1517.18 1714.04 1515.87 Q1712.28 1514.54 1710.5 1514.54 Q1709.84 1514.54 1709.12 1514.73 Q1708.43 1514.93 1707.41 1515.5 Q1706.4 1516.07 1705.61 1517.48 Q1704.85 1518.88 1704.48 1521.01 Q1704.08 1523.75 1704.08 1530.32 Z" fill="#000000" fill-rule="evenodd" fill-opacity="1" /><path clip-path="url(#clip730)" d="M1728.26 1546.3 Q1727.5 1545.49 1727.5 1544.43 Q1727.5 1543.36 1728.26 1542.6 Q1729.03 1541.81 1730.19 1541.81 Q1731.3 1541.81 1732.04 1542.55 Q1732.81 1543.27 1732.81 1544.45 Q1732.81 1545.61 1731.99 1546.38 Q1731.2 1547.12 1730.19 1547.12 Q1729.03 1547.12 1728.26 1546.3 Z" fill="#000000" fill-rule="evenodd" fill-opacity="1" /><path clip-path="url(#clip730)" d="M1739.38 1539.49 Q1739.38 1533.83 1746.67 1530.17 Q1743.53 1528.05 1742.96 1527.43 Q1740.74 1524.96 1740.74 1521.87 Q1740.74 1518.34 1743.41 1515.89 Q1746.1 1513.42 1749.9 1513.42 Q1753.54 1513.42 1756.28 1515.52 Q1759.02 1517.62 1759.02 1520.96 Q1759.02 1525.65 1752.89 1528.81 Q1756.95 1531.33 1757.91 1532.4 Q1760.38 1535.14 1760.38 1538.62 Q1760.38 1542.67 1757.27 1545.46 Q1754.15 1548.23 1749.86 1548.23 Q1745.66 1548.23 1742.52 1545.79 Q1739.38 1543.34 1739.38 1539.49 M1741.9 1539.49 Q1741.9 1542.62 1744.25 1544.72 Q1746.62 1546.82 1749.9 1546.82 Q1753.09 1546.82 1755.46 1545 Q1757.86 1543.17 1757.86 1540.45 Q1757.86 1539.39 1757.49 1538.47 Q1757.14 1537.56 1756.43 1536.84 Q1755.73 1536.1 1755.29 1535.78 Q1754.87 1535.44 1754.05 1534.87 L1747.83 1530.94 Q1741.9 1534.22 1741.9 1539.49 M1742.96 1519.9 Q1742.96 1522.32 1745.51 1524 L1751.78 1528.05 Q1756.8 1525.11 1756.8 1520.96 Q1756.8 1518.27 1754.75 1516.49 Q1752.7 1514.68 1749.86 1514.68 Q1747.06 1514.68 1745.01 1516.17 Q1742.96 1517.62 1742.96 1519.9 Z" fill="#000000" fill-rule="evenodd" fill-opacity="1" /><path clip-path="url(#clip730)" d="M1765.07 1538.97 Q1765.07 1537.46 1765.89 1536.89 Q1766.7 1536.3 1767.57 1536.3 Q1768.73 1536.3 1769.4 1537.04 Q1770.09 1537.76 1770.09 1538.77 Q1770.09 1539.78 1769.4 1540.52 Q1768.73 1541.24 1767.57 1541.24 Q1767 1541.24 1766.7 1541.14 Q1767.37 1543.46 1769.4 1545.14 Q1771.45 1546.82 1774.14 1546.82 Q1777.52 1546.82 1779.55 1543.54 Q1780.76 1541.41 1780.76 1536.6 Q1780.76 1532.35 1779.85 1530.22 Q1778.44 1526.99 1775.55 1526.99 Q1771.45 1526.99 1769.03 1530.52 Q1768.73 1530.96 1768.38 1530.99 Q1767.89 1530.99 1767.77 1530.72 Q1767.67 1530.42 1767.67 1529.65 L1767.67 1514.68 Q1767.67 1513.47 1768.16 1513.47 Q1768.36 1513.47 1768.78 1513.62 Q1771.96 1515.03 1775.5 1515.05 Q1779.13 1515.05 1782.39 1513.57 Q1782.64 1513.42 1782.78 1513.42 Q1783.28 1513.42 1783.3 1513.99 Q1783.3 1514.19 1782.88 1514.78 Q1782.49 1515.35 1781.62 1516.12 Q1780.76 1516.86 1779.65 1517.57 Q1778.54 1518.29 1776.91 1518.79 Q1775.3 1519.25 1773.52 1519.25 Q1771.4 1519.25 1769.22 1518.59 L1769.22 1528.44 Q1771.84 1525.87 1775.65 1525.87 Q1779.7 1525.87 1782.49 1529.14 Q1785.28 1532.4 1785.28 1536.94 Q1785.28 1541.71 1781.97 1544.97 Q1778.68 1548.23 1774.24 1548.23 Q1770.19 1548.23 1767.62 1545.34 Q1765.07 1542.45 1765.07 1538.97 Z" fill="#000000" fill-rule="evenodd" fill-opacity="1" /><path clip-path="url(#clip730)" d="M2179.34 1530.94 Q2179.34 1523.5 2181.22 1519.45 Q2183.84 1513.42 2190.02 1513.42 Q2191.32 1513.42 2192.68 1513.8 Q2194.07 1514.14 2195.8 1515.5 Q2197.55 1516.86 2198.61 1519.08 Q2200.64 1523.38 2200.64 1530.94 Q2200.64 1538.33 2198.76 1542.35 Q2196.02 1548.23 2189.97 1548.23 Q2187.69 1548.23 2185.37 1547.07 Q2183.07 1545.91 2181.62 1543.12 Q2179.34 1538.94 2179.34 1530.94 M2183.54 1530.32 Q2183.54 1537.95 2184.09 1540.99 Q2184.7 1544.28 2186.38 1545.71 Q2188.09 1547.12 2189.97 1547.12 Q2191.99 1547.12 2193.67 1545.61 Q2195.38 1544.08 2195.89 1540.8 Q2196.46 1537.56 2196.44 1530.32 Q2196.44 1523.28 2195.94 1520.46 Q2195.28 1517.18 2193.5 1515.87 Q2191.74 1514.54 2189.97 1514.54 Q2189.3 1514.54 2188.58 1514.73 Q2187.89 1514.93 2186.88 1515.5 Q2185.86 1516.07 2185.07 1517.48 Q2184.31 1518.88 2183.94 1521.01 Q2183.54 1523.75 2183.54 1530.32 Z" fill="#000000" fill-rule="evenodd" fill-opacity="1" /><path clip-path="url(#clip730)" d="M2207.73 1546.3 Q2206.96 1545.49 2206.96 1544.43 Q2206.96 1543.36 2207.73 1542.6 Q2208.49 1541.81 2209.65 1541.81 Q2210.77 1541.81 2211.51 1542.55 Q2212.27 1543.27 2212.27 1544.45 Q2212.27 1545.61 2211.46 1546.38 Q2210.67 1547.12 2209.65 1547.12 Q2208.49 1547.12 2207.73 1546.3 Z" fill="#000000" fill-rule="evenodd" fill-opacity="1" /><path clip-path="url(#clip730)" d="M2218.84 1524.81 Q2218.84 1522.12 2219.63 1520.29 Q2220.42 1518.44 2222.08 1516.61 Q2225.12 1513.42 2229.52 1513.42 Q2231.39 1513.42 2233.05 1514.21 Q2234.73 1515.01 2236.31 1516.81 Q2237.91 1518.59 2238.88 1522.12 Q2239.84 1525.63 2239.84 1530.47 Q2239.84 1538.3 2236.04 1543.27 Q2232.26 1548.23 2227.14 1548.23 Q2223.91 1548.23 2222.01 1546.77 Q2220.1 1545.29 2220.1 1542.77 Q2220.1 1541.46 2220.84 1540.92 Q2221.59 1540.35 2222.43 1540.35 Q2223.34 1540.35 2224.06 1540.97 Q2224.77 1541.56 2224.77 1542.67 Q2224.77 1543.59 2224.18 1544.3 Q2223.61 1545 2222.13 1545 Q2223.59 1546.82 2227.09 1546.82 Q2228.35 1546.82 2229.61 1546.26 Q2230.87 1545.66 2232.23 1544.25 Q2233.62 1542.82 2234.46 1539.83 Q2235.3 1536.84 2235.3 1532.64 L2235.3 1531.04 Q2233.27 1536.1 2228.97 1536.1 Q2224.72 1536.1 2221.78 1532.84 Q2218.84 1529.58 2218.84 1524.81 M2223.39 1524.86 Q2223.39 1529.88 2224.3 1531.73 Q2225.86 1534.92 2229.02 1534.92 Q2232.11 1534.92 2233.64 1532.17 Q2235.2 1529.41 2235.2 1525.83 Q2235.2 1520.86 2234.38 1518.69 Q2232.88 1514.68 2229.52 1514.68 Q2226.18 1514.68 2224.45 1517.87 Q2223.39 1519.75 2223.39 1524.86 Z" fill="#000000" fill-rule="evenodd" fill-opacity="1" /><path clip-path="url(#clip730)" d="M2243.99 1530.94 Q2243.99 1523.5 2245.87 1519.45 Q2248.49 1513.42 2254.66 1513.42 Q2255.97 1513.42 2257.33 1513.8 Q2258.72 1514.14 2260.44 1515.5 Q2262.2 1516.86 2263.26 1519.08 Q2265.29 1523.38 2265.29 1530.94 Q2265.29 1538.33 2263.41 1542.35 Q2260.67 1548.23 2254.61 1548.23 Q2252.34 1548.23 2250.02 1547.07 Q2247.72 1545.91 2246.26 1543.12 Q2243.99 1538.94 2243.99 1530.94 M2248.19 1530.32 Q2248.19 1537.95 2248.73 1540.99 Q2249.35 1544.28 2251.03 1545.71 Q2252.74 1547.12 2254.61 1547.12 Q2256.64 1547.12 2258.32 1545.61 Q2260.02 1544.08 2260.54 1540.8 Q2261.11 1537.56 2261.09 1530.32 Q2261.09 1523.28 2260.59 1520.46 Q2259.93 1517.18 2258.15 1515.87 Q2256.39 1514.54 2254.61 1514.54 Q2253.95 1514.54 2253.23 1514.73 Q2252.54 1514.93 2251.53 1515.5 Q2250.51 1516.07 2249.72 1517.48 Q2248.96 1518.88 2248.59 1521.01 Q2248.19 1523.75 2248.19 1530.32 Z" fill="#000000" fill-rule="evenodd" fill-opacity="1" /><polyline clip-path="url(#clip732)" style="stroke:#000000; stroke-linecap:butt; stroke-linejoin:round; stroke-width:0.8; stroke-opacity:0.4; fill:none" points="
  303.376,1486.45 2222.31,1486.45 
  "/>
<polyline clip-path="url(#clip732)" style="stroke:#000000; stroke-linecap:butt; stroke-linejoin:round; stroke-width:0.8; stroke-opacity:0.4; fill:none" points="
  303.376,1006.71 2222.31,1006.71 
  "/>
<polyline clip-path="url(#clip732)" style="stroke:#000000; stroke-linecap:butt; stroke-linejoin:round; stroke-width:0.8; stroke-opacity:0.4; fill:none" points="
  303.376,526.979 2222.31,526.979 
  "/>
<polyline clip-path="url(#clip732)" style="stroke:#000000; stroke-linecap:butt; stroke-linejoin:round; stroke-width:0.8; stroke-opacity:0.4; fill:none" points="
  303.376,47.2441 2222.31,47.2441 
  "/>
<polyline clip-path="url(#clip732)" style="stroke:#000000; stroke-linecap:butt; stroke-linejoin:round; stroke-width:2; stroke-opacity:0.06; fill:none" points="
  303.376,1390.5 2222.31,1390.5 
  "/>
<polyline clip-path="url(#clip732)" style="stroke:#000000; stroke-linecap:butt; stroke-linejoin:round; stroke-width:2; stroke-opacity:0.06; fill:none" points="
  303.376,1294.55 2222.31,1294.55 
  "/>
<polyline clip-path="url(#clip732)" style="stroke:#000000; stroke-linecap:butt; stroke-linejoin:round; stroke-width:2; stroke-opacity:0.06; fill:none" points="
  303.376,1198.61 2222.31,1198.61 
  "/>
<polyline clip-path="url(#clip732)" style="stroke:#000000; stroke-linecap:butt; stroke-linejoin:round; stroke-width:2; stroke-opacity:0.06; fill:none" points="
  303.376,1102.66 2222.31,1102.66 
  "/>
<polyline clip-path="url(#clip732)" style="stroke:#000000; stroke-linecap:butt; stroke-linejoin:round; stroke-width:2; stroke-opacity:0.06; fill:none" points="
  303.376,910.766 2222.31,910.766 
  "/>
<polyline clip-path="url(#clip732)" style="stroke:#000000; stroke-linecap:butt; stroke-linejoin:round; stroke-width:2; stroke-opacity:0.06; fill:none" points="
  303.376,814.819 2222.31,814.819 
  "/>
<polyline clip-path="url(#clip732)" style="stroke:#000000; stroke-linecap:butt; stroke-linejoin:round; stroke-width:2; stroke-opacity:0.06; fill:none" points="
  303.376,718.873 2222.31,718.873 
  "/>
<polyline clip-path="url(#clip732)" style="stroke:#000000; stroke-linecap:butt; stroke-linejoin:round; stroke-width:2; stroke-opacity:0.06; fill:none" points="
  303.376,622.926 2222.31,622.926 
  "/>
<polyline clip-path="url(#clip732)" style="stroke:#000000; stroke-linecap:butt; stroke-linejoin:round; stroke-width:2; stroke-opacity:0.06; fill:none" points="
  303.376,431.032 2222.31,431.032 
  "/>
<polyline clip-path="url(#clip732)" style="stroke:#000000; stroke-linecap:butt; stroke-linejoin:round; stroke-width:2; stroke-opacity:0.06; fill:none" points="
  303.376,335.085 2222.31,335.085 
  "/>
<polyline clip-path="url(#clip732)" style="stroke:#000000; stroke-linecap:butt; stroke-linejoin:round; stroke-width:2; stroke-opacity:0.06; fill:none" points="
  303.376,239.138 2222.31,239.138 
  "/>
<polyline clip-path="url(#clip732)" style="stroke:#000000; stroke-linecap:butt; stroke-linejoin:round; stroke-width:2; stroke-opacity:0.06; fill:none" points="
  303.376,143.191 2222.31,143.191 
  "/>
<polyline clip-path="url(#clip730)" style="stroke:#000000; stroke-linecap:butt; stroke-linejoin:round; stroke-width:4; stroke-opacity:1; fill:none" points="
  303.376,1486.45 303.376,47.2441 
  "/>
<polyline clip-path="url(#clip730)" style="stroke:#000000; stroke-linecap:butt; stroke-linejoin:round; stroke-width:4; stroke-opacity:1; fill:none" points="
  2222.31,1486.45 2222.31,47.2441 
  "/>
<polyline clip-path="url(#clip730)" style="stroke:#000000; stroke-linecap:butt; stroke-linejoin:round; stroke-width:4; stroke-opacity:1; fill:none" points="
  303.376,1486.45 326.404,1486.45 
  "/>
<polyline clip-path="url(#clip730)" style="stroke:#000000; stroke-linecap:butt; stroke-linejoin:round; stroke-width:4; stroke-opacity:1; fill:none" points="
  303.376,1006.71 326.404,1006.71 
  "/>
<polyline clip-path="url(#clip730)" style="stroke:#000000; stroke-linecap:butt; stroke-linejoin:round; stroke-width:4; stroke-opacity:1; fill:none" points="
  303.376,526.979 326.404,526.979 
  "/>
<polyline clip-path="url(#clip730)" style="stroke:#000000; stroke-linecap:butt; stroke-linejoin:round; stroke-width:4; stroke-opacity:1; fill:none" points="
  303.376,47.2441 326.404,47.2441 
  "/>
<polyline clip-path="url(#clip730)" style="stroke:#000000; stroke-linecap:butt; stroke-linejoin:round; stroke-width:4; stroke-opacity:1; fill:none" points="
  303.376,1390.5 314.89,1390.5 
  "/>
<polyline clip-path="url(#clip730)" style="stroke:#000000; stroke-linecap:butt; stroke-linejoin:round; stroke-width:4; stroke-opacity:1; fill:none" points="
  303.376,1294.55 314.89,1294.55 
  "/>
<polyline clip-path="url(#clip730)" style="stroke:#000000; stroke-linecap:butt; stroke-linejoin:round; stroke-width:4; stroke-opacity:1; fill:none" points="
  303.376,1198.61 314.89,1198.61 
  "/>
<polyline clip-path="url(#clip730)" style="stroke:#000000; stroke-linecap:butt; stroke-linejoin:round; stroke-width:4; stroke-opacity:1; fill:none" points="
  303.376,1102.66 314.89,1102.66 
  "/>
<polyline clip-path="url(#clip730)" style="stroke:#000000; stroke-linecap:butt; stroke-linejoin:round; stroke-width:4; stroke-opacity:1; fill:none" points="
  303.376,910.766 314.89,910.766 
  "/>
<polyline clip-path="url(#clip730)" style="stroke:#000000; stroke-linecap:butt; stroke-linejoin:round; stroke-width:4; stroke-opacity:1; fill:none" points="
  303.376,814.819 314.89,814.819 
  "/>
<polyline clip-path="url(#clip730)" style="stroke:#000000; stroke-linecap:butt; stroke-linejoin:round; stroke-width:4; stroke-opacity:1; fill:none" points="
  303.376,718.873 314.89,718.873 
  "/>
<polyline clip-path="url(#clip730)" style="stroke:#000000; stroke-linecap:butt; stroke-linejoin:round; stroke-width:4; stroke-opacity:1; fill:none" points="
  303.376,622.926 314.89,622.926 
  "/>
<polyline clip-path="url(#clip730)" style="stroke:#000000; stroke-linecap:butt; stroke-linejoin:round; stroke-width:4; stroke-opacity:1; fill:none" points="
  303.376,431.032 314.89,431.032 
  "/>
<polyline clip-path="url(#clip730)" style="stroke:#000000; stroke-linecap:butt; stroke-linejoin:round; stroke-width:4; stroke-opacity:1; fill:none" points="
  303.376,335.085 314.89,335.085 
  "/>
<polyline clip-path="url(#clip730)" style="stroke:#000000; stroke-linecap:butt; stroke-linejoin:round; stroke-width:4; stroke-opacity:1; fill:none" points="
  303.376,239.138 314.89,239.138 
  "/>
<polyline clip-path="url(#clip730)" style="stroke:#000000; stroke-linecap:butt; stroke-linejoin:round; stroke-width:4; stroke-opacity:1; fill:none" points="
  303.376,143.191 314.89,143.191 
  "/>
<path clip-path="url(#clip730)" d="M181.433 1487.55 Q181.433 1480.11 183.311 1476.06 Q185.929 1470.03 192.105 1470.03 Q193.414 1470.03 194.773 1470.4 Q196.157 1470.75 197.886 1472.11 Q199.64 1473.47 200.702 1475.69 Q202.728 1479.99 202.728 1487.55 Q202.728 1494.93 200.85 1498.96 Q198.108 1504.84 192.056 1504.84 Q189.783 1504.84 187.461 1503.68 Q185.164 1502.52 183.706 1499.73 Q181.433 1495.55 181.433 1487.55 M185.633 1486.93 Q185.633 1494.56 186.176 1497.6 Q186.794 1500.89 188.474 1502.32 Q190.178 1503.73 192.056 1503.73 Q194.081 1503.73 195.761 1502.22 Q197.466 1500.69 197.985 1497.4 Q198.553 1494.17 198.528 1486.93 Q198.528 1479.89 198.034 1477.07 Q197.367 1473.79 195.588 1472.48 Q193.834 1471.14 192.056 1471.14 Q191.389 1471.14 190.672 1471.34 Q189.981 1471.54 188.968 1472.11 Q187.955 1472.68 187.165 1474.08 Q186.399 1475.49 186.028 1477.62 Q185.633 1480.36 185.633 1486.93 Z" fill="#000000" fill-rule="evenodd" fill-opacity="1" /><path clip-path="url(#clip730)" d="M209.817 1502.91 Q209.052 1502.1 209.052 1501.04 Q209.052 1499.97 209.817 1499.21 Q210.583 1498.42 211.744 1498.42 Q212.856 1498.42 213.597 1499.16 Q214.363 1499.87 214.363 1501.06 Q214.363 1502.22 213.548 1502.99 Q212.757 1503.73 211.744 1503.73 Q210.583 1503.73 209.817 1502.91 Z" fill="#000000" fill-rule="evenodd" fill-opacity="1" /><path clip-path="url(#clip730)" d="M220.934 1481.42 Q220.934 1478.73 221.725 1476.9 Q222.515 1475.05 224.17 1473.22 Q227.209 1470.03 231.606 1470.03 Q233.483 1470.03 235.138 1470.82 Q236.818 1471.61 238.399 1473.42 Q240.005 1475.2 240.968 1478.73 Q241.932 1482.24 241.932 1487.08 Q241.932 1494.91 238.128 1499.87 Q234.348 1504.84 229.234 1504.84 Q225.998 1504.84 224.096 1503.38 Q222.194 1501.9 222.194 1499.38 Q222.194 1498.07 222.935 1497.53 Q223.676 1496.96 224.516 1496.96 Q225.43 1496.96 226.146 1497.58 Q226.863 1498.17 226.863 1499.28 Q226.863 1500.2 226.27 1500.91 Q225.702 1501.6 224.22 1501.6 Q225.677 1503.43 229.185 1503.43 Q230.445 1503.43 231.705 1502.86 Q232.965 1502.27 234.323 1500.86 Q235.707 1499.43 236.547 1496.44 Q237.386 1493.45 237.386 1489.25 L237.386 1487.65 Q235.361 1492.71 231.062 1492.71 Q226.813 1492.71 223.874 1489.45 Q220.934 1486.19 220.934 1481.42 M225.479 1481.47 Q225.479 1486.48 226.393 1488.34 Q227.95 1491.52 231.112 1491.52 Q234.2 1491.52 235.731 1488.78 Q237.288 1486.02 237.288 1482.43 Q237.288 1477.47 236.472 1475.29 Q234.966 1471.29 231.606 1471.29 Q228.271 1471.29 226.542 1474.48 Q225.479 1476.36 225.479 1481.47 Z" fill="#000000" fill-rule="evenodd" fill-opacity="1" /><path clip-path="url(#clip730)" d="M246.082 1487.55 Q246.082 1480.11 247.959 1476.06 Q250.578 1470.03 256.754 1470.03 Q258.063 1470.03 259.422 1470.4 Q260.805 1470.75 262.534 1472.11 Q264.288 1473.47 265.351 1475.69 Q267.376 1479.99 267.376 1487.55 Q267.376 1494.93 265.499 1498.96 Q262.757 1504.84 256.704 1504.84 Q254.432 1504.84 252.11 1503.68 Q249.812 1502.52 248.355 1499.73 Q246.082 1495.55 246.082 1487.55 M250.282 1486.93 Q250.282 1494.56 250.825 1497.6 Q251.443 1500.89 253.122 1502.32 Q254.827 1503.73 256.704 1503.73 Q258.73 1503.73 260.41 1502.22 Q262.115 1500.69 262.633 1497.4 Q263.201 1494.17 263.177 1486.93 Q263.177 1479.89 262.683 1477.07 Q262.016 1473.79 260.237 1472.48 Q258.483 1471.14 256.704 1471.14 Q256.037 1471.14 255.321 1471.34 Q254.629 1471.54 253.617 1472.11 Q252.604 1472.68 251.813 1474.08 Q251.047 1475.49 250.677 1477.62 Q250.282 1480.36 250.282 1486.93 Z" fill="#000000" fill-rule="evenodd" fill-opacity="1" /><path clip-path="url(#clip730)" d="M181.977 1007.81 Q181.977 1000.38 183.854 996.326 Q186.473 990.298 192.649 990.298 Q193.958 990.298 195.317 990.668 Q196.7 991.014 198.429 992.373 Q200.183 993.732 201.245 995.955 Q203.271 1000.25 203.271 1007.81 Q203.271 1015.2 201.394 1019.23 Q198.652 1025.1 192.599 1025.1 Q190.327 1025.1 188.004 1023.94 Q185.707 1022.78 184.25 1019.99 Q181.977 1015.82 181.977 1007.81 M186.176 1007.19 Q186.176 1014.83 186.72 1017.87 Q187.337 1021.15 189.017 1022.59 Q190.722 1023.99 192.599 1023.99 Q194.625 1023.99 196.305 1022.49 Q198.009 1020.95 198.528 1017.67 Q199.096 1014.43 199.072 1007.19 Q199.072 1000.15 198.577 997.338 Q197.91 994.053 196.132 992.744 Q194.378 991.41 192.599 991.41 Q191.932 991.41 191.216 991.607 Q190.524 991.805 189.511 992.373 Q188.498 992.941 187.708 994.349 Q186.942 995.757 186.572 997.882 Q186.176 1000.62 186.176 1007.19 Z" fill="#000000" fill-rule="evenodd" fill-opacity="1" /><path clip-path="url(#clip730)" d="M210.361 1023.18 Q209.595 1022.36 209.595 1021.3 Q209.595 1020.24 210.361 1019.47 Q211.127 1018.68 212.288 1018.68 Q213.399 1018.68 214.141 1019.42 Q214.906 1020.14 214.906 1021.33 Q214.906 1022.49 214.091 1023.25 Q213.301 1023.99 212.288 1023.99 Q211.127 1023.99 210.361 1023.18 Z" fill="#000000" fill-rule="evenodd" fill-opacity="1" /><path clip-path="url(#clip730)" d="M221.477 1001.69 Q221.477 998.993 222.268 997.165 Q223.058 995.313 224.714 993.485 Q227.752 990.298 232.149 990.298 Q234.027 990.298 235.682 991.088 Q237.362 991.879 238.943 993.682 Q240.548 995.461 241.512 998.993 Q242.475 1002.5 242.475 1007.34 Q242.475 1015.17 238.671 1020.14 Q234.891 1025.1 229.778 1025.1 Q226.542 1025.1 224.64 1023.65 Q222.737 1022.17 222.737 1019.65 Q222.737 1018.34 223.478 1017.79 Q224.22 1017.22 225.059 1017.22 Q225.973 1017.22 226.69 1017.84 Q227.406 1018.44 227.406 1019.55 Q227.406 1020.46 226.813 1021.18 Q226.245 1021.87 224.763 1021.87 Q226.221 1023.7 229.728 1023.7 Q230.988 1023.7 232.248 1023.13 Q233.508 1022.54 234.867 1021.13 Q236.25 1019.69 237.09 1016.71 Q237.93 1013.72 237.93 1009.52 L237.93 1007.91 Q235.904 1012.98 231.606 1012.98 Q227.357 1012.98 224.417 1009.71 Q221.477 1006.45 221.477 1001.69 M226.023 1001.74 Q226.023 1006.75 226.937 1008.6 Q228.493 1011.79 231.655 1011.79 Q234.743 1011.79 236.275 1009.05 Q237.831 1006.28 237.831 1002.7 Q237.831 997.734 237.016 995.56 Q235.509 991.558 232.149 991.558 Q228.814 991.558 227.085 994.745 Q226.023 996.622 226.023 1001.74 Z" fill="#000000" fill-rule="evenodd" fill-opacity="1" /><path clip-path="url(#clip730)" d="M247.169 1015.84 Q247.169 1014.33 247.984 1013.77 Q248.799 1013.17 249.664 1013.17 Q250.825 1013.17 251.492 1013.91 Q252.184 1014.63 252.184 1015.64 Q252.184 1016.66 251.492 1017.4 Q250.825 1018.11 249.664 1018.11 Q249.096 1018.11 248.799 1018.02 Q249.466 1020.34 251.492 1022.02 Q253.542 1023.7 256.235 1023.7 Q259.619 1023.7 261.645 1020.41 Q262.856 1018.29 262.856 1013.47 Q262.856 1009.22 261.942 1007.1 Q260.533 1003.86 257.643 1003.86 Q253.542 1003.86 251.122 1007.39 Q250.825 1007.84 250.479 1007.86 Q249.985 1007.86 249.862 1007.59 Q249.763 1007.29 249.763 1006.53 L249.763 991.558 Q249.763 990.347 250.257 990.347 Q250.455 990.347 250.874 990.496 Q254.061 991.904 257.594 991.928 Q261.225 991.928 264.486 990.446 Q264.733 990.298 264.881 990.298 Q265.375 990.298 265.4 990.866 Q265.4 991.064 264.98 991.657 Q264.585 992.225 263.72 992.991 Q262.856 993.732 261.744 994.448 Q260.632 995.164 259.002 995.659 Q257.396 996.128 255.618 996.128 Q253.493 996.128 251.319 995.461 L251.319 1005.32 Q253.938 1002.75 257.742 1002.75 Q261.793 1002.75 264.585 1006.01 Q267.376 1009.27 267.376 1013.82 Q267.376 1018.58 264.066 1021.84 Q260.781 1025.1 256.334 1025.1 Q252.283 1025.1 249.713 1022.21 Q247.169 1019.32 247.169 1015.84 Z" fill="#000000" fill-rule="evenodd" fill-opacity="1" /><path clip-path="url(#clip730)" d="M183.953 515.38 L183.953 513.799 Q190.03 513.799 193.167 510.563 Q194.032 510.563 194.18 510.761 Q194.328 510.959 194.328 511.873 L194.328 540.257 Q194.328 541.764 195.07 542.233 Q195.811 542.702 199.047 542.702 L200.653 542.702 L200.653 544.259 Q198.874 544.11 192.451 544.11 Q186.028 544.11 184.274 544.259 L184.274 542.702 L185.88 542.702 Q189.067 542.702 189.832 542.258 Q190.598 541.788 190.598 540.257 L190.598 514.046 Q187.955 515.38 183.953 515.38 Z" fill="#000000" fill-rule="evenodd" fill-opacity="1" /><path clip-path="url(#clip730)" d="M209.817 543.443 Q209.052 542.628 209.052 541.566 Q209.052 540.504 209.817 539.738 Q210.583 538.947 211.744 538.947 Q212.856 538.947 213.597 539.689 Q214.363 540.405 214.363 541.591 Q214.363 542.752 213.548 543.518 Q212.757 544.259 211.744 544.259 Q210.583 544.259 209.817 543.443 Z" fill="#000000" fill-rule="evenodd" fill-opacity="1" /><path clip-path="url(#clip730)" d="M220.786 528.078 Q220.786 520.642 222.663 516.591 Q225.282 510.563 231.458 510.563 Q232.767 510.563 234.126 510.934 Q235.509 511.28 237.238 512.638 Q238.992 513.997 240.054 516.22 Q242.08 520.519 242.08 528.078 Q242.08 535.464 240.203 539.491 Q237.461 545.37 231.408 545.37 Q229.136 545.37 226.813 544.209 Q224.516 543.048 223.058 540.257 Q220.786 536.082 220.786 528.078 M224.985 527.46 Q224.985 535.094 225.529 538.132 Q226.146 541.418 227.826 542.851 Q229.531 544.259 231.408 544.259 Q233.434 544.259 235.114 542.752 Q236.818 541.22 237.337 537.935 Q237.905 534.698 237.881 527.46 Q237.881 520.42 237.386 517.604 Q236.719 514.318 234.941 513.009 Q233.187 511.675 231.408 511.675 Q230.741 511.675 230.025 511.873 Q229.333 512.07 228.32 512.638 Q227.307 513.207 226.517 514.615 Q225.751 516.023 225.381 518.147 Q224.985 520.889 224.985 527.46 Z" fill="#000000" fill-rule="evenodd" fill-opacity="1" /><path clip-path="url(#clip730)" d="M246.082 528.078 Q246.082 520.642 247.959 516.591 Q250.578 510.563 256.754 510.563 Q258.063 510.563 259.422 510.934 Q260.805 511.28 262.534 512.638 Q264.288 513.997 265.351 516.22 Q267.376 520.519 267.376 528.078 Q267.376 535.464 265.499 539.491 Q262.757 545.37 256.704 545.37 Q254.432 545.37 252.11 544.209 Q249.812 543.048 248.355 540.257 Q246.082 536.082 246.082 528.078 M250.282 527.46 Q250.282 535.094 250.825 538.132 Q251.443 541.418 253.122 542.851 Q254.827 544.259 256.704 544.259 Q258.73 544.259 260.41 542.752 Q262.115 541.22 262.633 537.935 Q263.201 534.698 263.177 527.46 Q263.177 520.42 262.683 517.604 Q262.016 514.318 260.237 513.009 Q258.483 511.675 256.704 511.675 Q256.037 511.675 255.321 511.873 Q254.629 512.07 253.617 512.638 Q252.604 513.207 251.813 514.615 Q251.047 516.023 250.677 518.147 Q250.282 520.889 250.282 527.46 Z" fill="#000000" fill-rule="evenodd" fill-opacity="1" /><path clip-path="url(#clip730)" d="M184.497 35.6459 L184.497 34.0649 Q190.574 34.0649 193.711 30.8287 Q194.576 30.8287 194.724 31.0263 Q194.872 31.224 194.872 32.138 L194.872 60.5222 Q194.872 62.0291 195.613 62.4984 Q196.354 62.9678 199.59 62.9678 L201.196 62.9678 L201.196 64.5241 Q199.417 64.3759 192.995 64.3759 Q186.572 64.3759 184.818 64.5241 L184.818 62.9678 L186.423 62.9678 Q189.61 62.9678 190.376 62.5231 Q191.142 62.0538 191.142 60.5222 L191.142 34.3119 Q188.498 35.6459 184.497 35.6459 Z" fill="#000000" fill-rule="evenodd" fill-opacity="1" /><path clip-path="url(#clip730)" d="M210.361 63.7089 Q209.595 62.8937 209.595 61.8314 Q209.595 60.7692 210.361 60.0034 Q211.127 59.2129 212.288 59.2129 Q213.399 59.2129 214.141 59.954 Q214.906 60.6704 214.906 61.8561 Q214.906 63.0172 214.091 63.783 Q213.301 64.5241 212.288 64.5241 Q211.127 64.5241 210.361 63.7089 Z" fill="#000000" fill-rule="evenodd" fill-opacity="1" /><path clip-path="url(#clip730)" d="M221.329 48.3434 Q221.329 40.9077 223.207 36.8563 Q225.825 30.8287 232.001 30.8287 Q233.31 30.8287 234.669 31.1993 Q236.052 31.5451 237.782 32.9038 Q239.536 34.2625 240.598 36.4858 Q242.624 40.7842 242.624 48.3434 Q242.624 55.7297 240.746 59.7563 Q238.004 65.6357 231.952 65.6357 Q229.679 65.6357 227.357 64.4747 Q225.059 63.3136 223.602 60.5222 Q221.329 56.3473 221.329 48.3434 M225.529 47.7258 Q225.529 55.3591 226.072 58.3977 Q226.69 61.6832 228.37 63.116 Q230.074 64.5241 231.952 64.5241 Q233.977 64.5241 235.657 63.0172 Q237.362 61.4856 237.881 58.2 Q238.449 54.9639 238.424 47.7258 Q238.424 40.6854 237.93 37.8692 Q237.263 34.5836 235.484 33.2743 Q233.73 31.9404 231.952 31.9404 Q231.285 31.9404 230.568 32.138 Q229.877 32.3356 228.864 32.9038 Q227.851 33.472 227.06 34.8801 Q226.295 36.2882 225.924 38.4126 Q225.529 41.1547 225.529 47.7258 Z" fill="#000000" fill-rule="evenodd" fill-opacity="1" /><path clip-path="url(#clip730)" d="M247.169 56.372 Q247.169 54.8651 247.984 54.2969 Q248.799 53.704 249.664 53.704 Q250.825 53.704 251.492 54.4451 Q252.184 55.1615 252.184 56.1744 Q252.184 57.1872 251.492 57.9283 Q250.825 58.6447 249.664 58.6447 Q249.096 58.6447 248.799 58.5459 Q249.466 60.868 251.492 62.5478 Q253.542 64.2277 256.235 64.2277 Q259.619 64.2277 261.645 60.9421 Q262.856 58.8176 262.856 54.0005 Q262.856 49.7515 261.942 47.627 Q260.533 44.3909 257.643 44.3909 Q253.542 44.3909 251.122 47.9234 Q250.825 48.3681 250.479 48.3928 Q249.985 48.3928 249.862 48.1211 Q249.763 47.8246 249.763 47.0588 L249.763 32.0886 Q249.763 30.8781 250.257 30.8781 Q250.455 30.8781 250.874 31.0263 Q254.061 32.4344 257.594 32.4591 Q261.225 32.4591 264.486 30.9769 Q264.733 30.8287 264.881 30.8287 Q265.375 30.8287 265.4 31.3969 Q265.4 31.5945 264.98 32.1874 Q264.585 32.7556 263.72 33.5214 Q262.856 34.2625 261.744 34.9789 Q260.632 35.6953 259.002 36.1893 Q257.396 36.6587 255.618 36.6587 Q253.493 36.6587 251.319 35.9917 L251.319 45.8484 Q253.938 43.2792 257.742 43.2792 Q261.793 43.2792 264.585 46.54 Q267.376 49.8009 267.376 54.3463 Q267.376 59.1141 264.066 62.3749 Q260.781 65.6357 256.334 65.6357 Q252.283 65.6357 249.713 62.7455 Q247.169 59.8552 247.169 56.372 Z" fill="#000000" fill-rule="evenodd" fill-opacity="1" /><polyline clip-path="url(#clip732)" style="stroke:#1c86ee; stroke-linecap:butt; stroke-linejoin:round; stroke-width:12; stroke-opacity:0.7; fill:none" points="
  -6412.91,10121.7 -6316.96,10121.7 -6221.01,10121.7 -6125.07,10121.7 -6029.12,10121.7 -5933.17,10121.7 -5837.23,10121.7 -5741.28,10121.7 -5645.33,10121.7 -5549.39,10121.7 
  -5453.44,10121.7 -5357.49,10121.7 -5261.54,10121.6 -5165.6,10121.5 -5069.65,10121 -4973.7,10119.9 -4877.76,10118.2 -4781.81,10115.5 -4685.86,10111.6 -4589.92,10106.3 
  -4493.97,10099.1 -4398.02,10089.9 -4302.08,10078.2 -4206.13,10063.6 -4110.18,10045.7 -4014.24,10024.1 -3918.29,9998.19 -3822.34,9967.52 -3726.39,9931.48 -3630.45,9889.49 
  -3534.5,9840.89 -3438.55,9785.01 -3342.61,9721.17 -3246.66,9648.65 -3150.71,9566.73 -3054.77,9474.67 -2958.82,9371.77 -2862.87,9257.33 -2766.93,9130.71 -2670.98,8991.33 
  -2575.03,8838.67 -2479.08,8672.35 -2383.14,8492.09 -2287.19,8297.77 -2191.24,8089.44 -2095.3,7867.36 -1999.35,7631.98 -1903.4,7383.96 -1807.46,7124.22 -1711.51,6853.87 
  -1615.56,6574.23 -1519.62,6286.84 -1423.67,5993.39 -1327.72,5695.69 -1231.77,5395.66 -1135.83,5095.26 -1039.88,4796.45 -943.934,4501.16 -847.987,4211.2 -752.04,3928.28 
  -656.093,3653.94 -560.146,3389.54 -464.199,3136.23 -368.252,2894.95 -272.305,2666.41 -176.358,2451.14 -80.4114,2249.44 15.5356,2061.44 111.482,1887.1 207.429,1726.24 
  303.376,1578.55 399.323,1443.61 495.27,1320.93 591.217,1209.95 687.164,1110.07 783.111,1020.66 879.058,941.077 975.005,870.664 1070.95,808.778 1166.9,754.788 
  1262.85,708.081 1358.79,668.072 1454.74,634.198 1550.69,605.93 1646.63,582.768 1742.58,564.244 1838.53,549.921 1934.47,539.395 2030.42,532.289 2126.37,528.256 
  2222.31,526.979 2318.26,526.979 2414.21,526.979 2510.16,526.979 2606.1,526.979 2702.05,526.979 2798,526.979 2893.94,526.979 2989.89,526.979 3085.84,526.979 
  3181.78,526.979 
  "/>
<polyline clip-path="url(#clip732)" style="stroke:#cd3700; stroke-linecap:butt; stroke-linejoin:round; stroke-width:12; stroke-opacity:0.7; fill:none" points="
  -6412.91,10121.7 -6316.96,10121.7 -6221.01,10121.7 -6125.07,10121.7 -6029.12,10121.7 -5933.17,10121.7 -5837.23,10121.7 -5741.28,10121.7 -5645.33,10121.7 -5549.39,10121.7 
  -5453.44,10121.7 -5357.49,10121.7 -5261.54,10114.2 -5165.6,10090.5 -5069.65,10048.7 -4973.7,9987.13 -4877.76,9903.97 -4781.81,9797.65 -4685.86,9666.8 -4589.92,9510.36 
  -4493.97,9327.63 -4398.02,9118.38 -4302.08,8882.91 -4206.13,8622.06 -4110.18,8337.3 -4014.24,8030.66 -3918.29,7704.71 -3822.34,7362.54 -3726.39,7007.58 -3630.45,6643.53 
  -3534.5,6274.25 -3438.55,5903.54 -3342.61,5535.11 -3246.66,5172.39 -3150.71,4818.48 -3054.77,4476.05 -2958.82,4147.33 -2862.87,3834.08 -2766.93,3537.61 -2670.98,3258.76 
  -2575.03,2998.03 -2479.08,2755.52 -2383.14,2531.07 -2287.19,2324.27 -2191.24,2134.52 -2095.3,1961.07 -1999.35,1803.07 -1903.4,1659.62 -1807.46,1529.77 -1711.51,1412.56 
  -1615.56,1307.04 -1519.62,1212.29 -1423.67,1127.41 -1327.72,1051.56 -1231.77,983.943 -1135.83,923.798 -1039.88,870.431 -943.934,823.192 -847.987,781.484 -752.04,744.757 
  -656.093,712.507 -560.146,684.273 -464.199,659.635 -368.252,638.212 -272.305,619.656 -176.358,603.651 -80.4114,589.912 15.5356,578.182 111.482,568.225 207.429,559.832 
  303.376,552.811 399.323,546.99 495.27,542.214 591.217,538.343 687.164,535.25 783.111,532.823 879.058,530.959 975.005,529.565 1070.95,528.56 1166.9,527.867 
  1262.85,527.42 1358.79,527.16 1454.74,527.031 1550.69,526.985 1646.63,526.979 1742.58,526.979 1838.53,526.979 1934.47,526.979 2030.42,526.979 2126.37,526.979 
  2222.31,526.979 2318.26,526.979 2414.21,526.979 2510.16,526.979 2606.1,526.979 2702.05,526.979 2798,526.979 2893.94,526.979 2989.89,526.979 3085.84,526.979 
  3181.78,526.979 
  "/>
<polyline clip-path="url(#clip732)" style="stroke:#008000; stroke-linecap:butt; stroke-linejoin:round; stroke-width:12; stroke-opacity:0.7; fill:none" points="
  -6412.91,10121.7 -6316.96,10121.7 -6221.01,10121.7 -6125.07,10121.7 -6029.12,10121.7 -5933.17,10121.7 -5837.23,10121.7 -5741.28,10121.7 -5645.33,10121.7 -5549.39,10121.7 
  -5453.44,10121.7 -5357.49,10121.7 -5261.54,10121.6 -5165.6,10121.1 -5069.65,10120 -4973.7,10117.7 -4877.76,10114 -4781.81,10108.5 -4685.86,10100.7 -4589.92,10090.2 
  -4493.97,10076.4 -4398.02,10058.9 -4302.08,10037.1 -4206.13,10010.3 -4110.18,9977.84 -4014.24,9939.08 -3918.29,9893.26 -3822.34,9839.58 -3726.39,9777.25 -3630.45,9705.43 
  -3534.5,9623.3 -3438.55,9530.01 -3342.61,9424.75 -3246.66,9306.76 -3150.71,9175.3 -3054.77,9029.75 -2958.82,8869.59 -2862.87,8694.43 -2766.93,8504.05 -2670.98,8298.44 
  -2575.03,8077.78 -2479.08,7842.51 -2383.14,7593.3 -2287.19,7331.09 -2191.24,7057.08 -2095.3,6772.71 -1999.35,6479.63 -1903.4,6179.68 -1807.46,5874.88 -1711.51,5567.31 
  -1615.56,5259.11 -1519.62,4952.43 -1423.67,4649.35 -1327.72,4351.84 -1231.77,4061.71 -1135.83,3780.61 -1039.88,3509.94 -943.934,3250.89 -847.987,3004.41 -752.04,2771.21 
  -656.093,2551.76 -560.146,2346.33 -464.199,2154.98 -368.252,1977.61 -272.305,1813.98 -176.358,1663.69 -80.4114,1526.28 15.5356,1401.19 111.482,1287.8 207.429,1185.46 
  303.376,1093.51 399.323,1011.25 495.27,938.007 591.217,873.112 687.164,815.913 783.111,765.783 879.058,722.125 975.005,684.369 1070.95,651.98 1166.9,624.454 
  1262.85,601.319 1358.79,582.136 1454.74,566.496 1550.69,554.017 1646.63,544.345 1742.58,537.149 1838.53,532.117 1934.47,528.951 2030.42,527.354 2126.37,526.979 
  2222.31,526.979 2318.26,526.979 2414.21,526.979 2510.16,526.979 2606.1,526.979 2702.05,526.979 2798,526.979 2893.94,526.979 2989.89,526.979 3085.84,526.979 
  3181.78,526.979 
  "/>
<circle clip-path="url(#clip732)" cx="1646.63" cy="582.768" r="21" fill="#1c86ee" fill-rule="evenodd" fill-opacity="1" stroke="#000000" stroke-opacity="1" stroke-width="0"/>
<circle clip-path="url(#clip732)" cx="1185.34" cy="619.68" r="21" fill="#008000" fill-rule="evenodd" fill-opacity="1" stroke="#000000" stroke-opacity="1" stroke-width="0"/>
<circle clip-path="url(#clip732)" cx="832.77" cy="742.416" r="21" fill="#008000" fill-rule="evenodd" fill-opacity="1" stroke="#000000" stroke-opacity="1" stroke-width="0"/>
<polyline clip-path="url(#clip732)" style="stroke:#000000; stroke-linecap:butt; stroke-linejoin:round; stroke-width:8; stroke-opacity:1; fill:none" stroke-dasharray="32, 20" points="
  -117561,10121.7 1646.63,582.768 
  "/>
<polyline clip-path="url(#clip732)" style="stroke:#000000; stroke-linecap:butt; stroke-linejoin:round; stroke-width:8; stroke-opacity:1; fill:none" stroke-dasharray="32, 20" points="
  -19842.4,10121.7 832.77,742.416 
  "/>
<polyline clip-path="url(#clip732)" style="stroke:#000000; stroke-linecap:butt; stroke-linejoin:round; stroke-width:5.6; stroke-opacity:1; fill:none" stroke-dasharray="22, 14" points="
  -5357.49,10121.7 -2543.79,2917.06 
  "/>
<polyline clip-path="url(#clip732)" style="stroke:#000000; stroke-linecap:butt; stroke-linejoin:round; stroke-width:5.6; stroke-opacity:1; fill:none" stroke-dasharray="22, 14" points="
  -6412.91,10121.7 -2543.79,2917.06 
  "/>
<path clip-path="url(#clip730)" d="M1627.87 691.239 Q1627.87 688.602 1629.43 687.348 Q1630.98 686.095 1632.84 686.095 Q1634.79 686.095 1636.26 687.435 Q1637.77 688.732 1637.77 691.066 Q1637.77 695.995 1632.19 695.995 Q1632.15 695.995 1632.11 695.995 Q1635.31 701.139 1641.88 701.139 Q1645.6 701.139 1648.28 697.508 Q1650.96 693.876 1650.96 688.04 L1650.96 647.662 Q1650.96 645.804 1650.61 645.112 Q1650.26 644.377 1648.41 643.901 Q1646.55 643.426 1642.31 643.426 L1639.11 643.426 L1639.11 640.659 Q1642.48 640.918 1653.98 640.918 Q1659.56 640.918 1665.4 640.659 L1665.4 643.426 Q1660.9 643.426 1659.73 643.945 Q1658.61 644.463 1658.61 647.057 L1658.61 686.354 Q1658.61 689.553 1658.52 690.245 Q1657.74 695.476 1653.16 699.28 Q1648.58 703.084 1642.05 703.084 Q1636.13 703.084 1631.98 699.669 Q1627.87 696.211 1627.87 691.239 Z" fill="#000000" fill-rule="evenodd" fill-opacity="1" /><path clip-path="url(#clip730)" d="M1171.48 669.792 L1171.48 667.025 Q1182.11 667.025 1187.6 661.362 Q1189.11 661.362 1189.37 661.707 Q1189.63 662.053 1189.63 663.653 L1189.63 713.325 Q1189.63 715.962 1190.93 716.784 Q1192.23 717.605 1197.89 717.605 L1200.7 717.605 L1200.7 720.328 Q1197.59 720.069 1186.35 720.069 Q1175.11 720.069 1172.04 720.328 L1172.04 717.605 L1174.85 717.605 Q1180.42 717.605 1181.76 716.827 Q1183.11 716.005 1183.11 713.325 L1183.11 667.457 Q1178.48 669.792 1171.48 669.792 Z" fill="#000000" fill-rule="evenodd" fill-opacity="1" /><path clip-path="url(#clip730)" d="M813.403 845.059 Q813.403 843.46 813.533 842.984 Q813.706 842.509 814.397 841.774 L831.387 822.839 Q840.682 812.377 840.682 803.255 Q840.682 797.333 837.569 793.096 Q834.5 788.859 828.836 788.859 Q824.946 788.859 821.66 791.237 Q818.374 793.615 816.861 797.851 Q817.121 797.765 818.029 797.765 Q820.233 797.765 821.444 799.148 Q822.698 800.532 822.698 802.391 Q822.698 804.768 821.141 805.935 Q819.628 807.06 818.115 807.06 Q817.51 807.06 816.688 806.93 Q815.91 806.8 814.657 805.59 Q813.403 804.336 813.403 802.131 Q813.403 795.949 818.072 791.021 Q822.784 786.093 829.96 786.093 Q838.088 786.093 843.405 790.934 Q848.766 795.733 848.766 803.255 Q848.766 805.892 847.944 808.313 Q847.166 810.691 846.085 812.55 Q845.048 814.409 842.195 817.392 Q839.341 820.375 837.05 822.493 Q834.759 824.611 829.615 829.107 L820.233 838.229 L836.186 838.229 Q843.967 838.229 844.572 837.537 Q845.437 836.284 846.518 829.669 L848.766 829.669 L846.258 845.059 L813.403 845.059 Z" fill="#000000" fill-rule="evenodd" fill-opacity="1" /></svg>
